<svg width="800" height="870" viewBox="0 0 800 870" fill="none" xmlns="http://www.w3.org/2000/svg">
<path d="M98.4028 253.035H174.719C175.272 253.035 175.719 253.483 175.719 254.035V632.589H98.4028V253.035Z" fill="#007BDB"/>
<path d="M0 352.438C0 351.886 0.447715 351.438 1 351.438H76.3165C76.8688 351.438 77.3165 351.886 77.3165 352.438V540.215C77.3165 540.767 76.8688 541.215 76.3165 541.215H1C0.447715 541.215 0 540.767 0 540.215V352.438Z" fill="#014B94"/>
<path d="M0 254.035C0 253.483 0.447715 253.035 1 253.035H167.691C168.243 253.035 168.691 253.483 168.691 254.035V329.352C168.691 329.904 168.243 330.352 167.691 330.352H1C0.447719 330.352 0 329.904 0 329.352V254.035Z" fill="#007BDB"/>
<circle cx="140.575" cy="702.877" r="64.3453" stroke="#007BDB" stroke-width="40"/>
<path d="M288.18 784.381L250.021 718.289C249.745 717.811 249.909 717.199 250.387 716.923L578.225 527.646L616.883 594.604L288.18 784.381Z" fill="#007BDB"/>
<path d="M423.468 819.9C422.99 820.176 422.378 820.012 422.102 819.534L384.444 754.308C384.167 753.83 384.331 753.218 384.81 752.942L547.429 659.053C547.907 658.777 548.519 658.941 548.795 659.419L586.453 724.645C586.729 725.124 586.566 725.735 586.087 726.011L423.468 819.9Z" fill="#014B94"/>
<path d="M338.247 869.102C337.769 869.378 337.157 869.214 336.881 868.736L253.536 724.377C253.26 723.899 253.424 723.287 253.902 723.011L319.128 685.353C319.606 685.077 320.218 685.241 320.494 685.719L403.839 830.077C404.115 830.556 403.951 831.167 403.473 831.443L338.247 869.102Z" fill="#007BDB"/>
<circle cx="656.666" cy="522.939" r="64.3453" transform="rotate(-120 656.666 522.939)" stroke="#007BDB" stroke-width="40"/>
<path d="M652.396 352.313L614.237 418.405C613.961 418.883 613.35 419.047 612.871 418.771L285.034 229.494L323.692 162.536L652.396 352.313Z" fill="#007BDB"/>
<path d="M615.511 217.392C615.989 217.668 616.153 218.279 615.877 218.758L578.219 283.984C577.943 284.462 577.331 284.626 576.853 284.35L414.233 190.461C413.755 190.185 413.591 189.573 413.867 189.095L451.525 123.869C451.802 123.391 452.413 123.227 452.891 123.503L615.511 217.392Z" fill="#014B94"/>
<path d="M700.731 266.593C701.209 266.869 701.373 267.481 701.097 267.959L617.752 412.317C617.476 412.796 616.864 412.959 616.386 412.683L551.16 375.025C550.682 374.749 550.518 374.137 550.794 373.659L634.139 229.301C634.415 228.823 635.027 228.659 635.505 228.935L700.731 266.593Z" fill="#007BDB"/>
<circle cx="241.736" cy="163.914" r="64.3453" transform="rotate(120 241.736 163.914)" stroke="#007BDB" stroke-width="40"/>
</svg>
