<svg width="713" height="400" viewBox="0 0 713 400" fill="none" xmlns="http://www.w3.org/2000/svg">
<g clip-path="url(#clip0)">
<path d="M84.8225 16.626C87.3431 16.626 89.3865 14.5826 89.3865 12.062C89.3865 9.54141 87.3431 7.49805 84.8225 7.49805C82.3019 7.49805 80.2585 9.54141 80.2585 12.062C80.2585 14.5826 82.3019 16.626 84.8225 16.626Z" fill="#0CC782"/>
<path d="M100.47 16.626C102.991 16.626 105.034 14.5826 105.034 12.062C105.034 9.54141 102.991 7.49805 100.47 7.49805C97.9499 7.49805 95.9065 9.54141 95.9065 12.062C95.9065 14.5826 97.9499 16.626 100.47 16.626Z" fill="#0CC782"/>
<path d="M116.118 16.626C118.639 16.626 120.682 14.5826 120.682 12.062C120.682 9.54141 118.639 7.49805 116.118 7.49805C113.598 7.49805 111.554 9.54141 111.554 12.062C111.554 14.5826 113.598 16.626 116.118 16.626Z" fill="#0CC782"/>
<path d="M549.044 261.777H112.858V313.284H549.044V261.777Z" fill="#DDDDDD"/>
<path d="M587.838 84.1077H328.343V215.811H587.838V84.1077Z" fill="#DDDDDD"/>
<path d="M373.891 203.749L432.663 105.624L493.625 203.749" fill="#007BDB"/>
<path d="M462.981 153.545L474.717 122.901L541.22 203.749H462.655L462.981 153.545Z" fill="#007BDB"/>
<path d="M450.625 141.37C452.451 140.252 454.04 138.785 455.299 137.052C456.559 135.32 457.465 133.357 457.965 131.274C458.466 129.192 458.551 127.031 458.215 124.916C457.88 122.801 457.132 120.772 456.012 118.946C454.893 117.12 453.424 115.533 451.691 114.275C449.958 113.017 447.994 112.112 445.911 111.614C443.828 111.115 441.667 111.032 439.552 111.369C437.437 111.705 435.409 112.456 433.584 113.577" fill="#007BDB"/>
<path d="M661.147 294.479C660.638 295.884 660.38 297.368 660.385 298.862C660.363 301.043 660.923 303.189 662.007 305.081C660.944 306.981 660.385 309.123 660.385 311.3C660.385 313.478 660.944 315.619 662.007 317.519C660.944 319.419 660.385 321.56 660.385 323.738C660.385 325.916 660.944 328.057 662.007 329.957C660.944 331.857 660.385 333.998 660.385 336.176C660.385 338.353 660.944 340.495 662.007 342.395C660.923 344.287 660.363 346.433 660.385 348.614C660.385 354.234 663.865 358.79 668.158 358.79C672.452 358.79 675.932 354.234 675.932 348.614C675.954 346.433 675.394 344.287 674.31 342.395C675.373 340.495 675.932 338.353 675.932 336.176C675.932 333.998 675.373 331.857 674.31 329.957C675.373 328.057 675.932 325.916 675.932 323.738C675.932 321.56 675.373 319.419 674.31 317.519C675.373 315.619 675.932 313.478 675.932 311.3C675.932 309.123 675.373 306.981 674.31 305.081C675.394 303.189 675.954 301.043 675.932 298.862C675.937 297.389 675.687 295.926 675.191 294.538" fill="#0CC782"/>
<path d="M639.058 188.871C637.996 187.519 637.029 186.095 636.163 184.61L656.589 181.255L634.498 181.419C632.378 176.809 631.222 171.814 631.1 166.741C630.978 161.668 631.892 156.623 633.786 151.915L663.424 167.29L636.091 147.198C638.652 142.773 642.097 138.923 646.21 135.887C650.324 132.851 655.019 130.695 660.002 129.553C664.985 128.41 670.15 128.307 675.176 129.247C680.201 130.188 684.979 132.154 689.211 135.022C693.444 137.89 697.04 141.599 699.777 145.917C702.513 150.236 704.331 155.071 705.118 160.123C705.904 165.175 705.641 170.334 704.347 175.28C703.052 180.226 700.753 184.853 697.592 188.871C699.247 190.976 700.671 193.252 701.839 195.662L675.324 209.437L703.596 199.948C705.581 205.816 706.072 212.087 705.023 218.192C703.975 224.298 701.421 230.046 697.592 234.915C701.912 240.408 704.6 247.005 705.347 253.953C706.094 260.901 704.872 267.918 701.819 274.204C698.766 280.49 694.006 285.789 688.083 289.497C682.16 293.205 675.313 295.171 668.325 295.171C661.337 295.171 654.49 293.205 648.567 289.497C642.644 285.789 637.884 280.49 634.831 274.204C631.778 267.918 630.555 260.901 631.303 253.953C632.05 247.005 634.738 240.408 639.058 234.915C633.896 228.352 631.089 220.244 631.089 211.893C631.089 203.543 633.896 195.435 639.058 188.871L639.058 188.871Z" fill="#0CC782"/>
<path d="M667.667 293.827C667.157 295.232 666.899 296.716 666.905 298.211C666.883 300.391 667.443 302.538 668.527 304.429C667.463 306.33 666.905 308.471 666.905 310.648C666.905 312.826 667.463 314.967 668.527 316.867C667.463 318.767 666.905 320.909 666.905 323.086C666.905 325.264 667.463 327.405 668.527 329.305C667.463 331.205 666.905 333.346 666.905 335.524C666.905 337.702 667.463 339.843 668.527 341.743C667.443 343.635 666.883 345.781 666.905 347.962C666.905 353.582 670.385 358.138 674.678 358.138C678.971 358.138 682.452 353.582 682.452 347.962C682.473 345.781 681.913 343.635 680.829 341.743C681.893 339.843 682.452 337.702 682.452 335.524C682.452 333.346 681.893 331.205 680.829 329.305C681.893 327.405 682.452 325.264 682.452 323.086C682.452 320.909 681.893 318.767 680.829 316.867C681.893 314.967 682.452 312.826 682.452 310.648C682.452 308.471 681.893 306.33 680.829 304.429C681.913 302.538 682.473 300.391 682.452 298.211C682.457 296.737 682.206 295.274 681.711 293.887" stroke="#999999" stroke-miterlimit="10"/>
<path d="M645.578 188.219C644.516 186.867 643.549 185.443 642.683 183.958L663.109 180.603L641.018 180.767C638.898 176.156 637.742 171.162 637.62 166.089C637.498 161.016 638.412 155.971 640.307 151.263L669.944 166.638L642.611 146.546C645.172 142.121 648.617 138.271 652.73 135.235C656.844 132.199 661.539 130.043 666.522 128.901C671.505 127.758 676.671 127.654 681.696 128.595C686.721 129.536 691.499 131.502 695.731 134.37C699.964 137.238 703.56 140.947 706.297 145.265C709.033 149.584 710.851 154.419 711.638 159.471C712.424 164.523 712.162 169.682 710.867 174.628C709.572 179.574 707.273 184.201 704.112 188.219C705.767 190.323 707.191 192.6 708.359 195.01L681.844 208.785L710.116 199.296C712.101 205.164 712.592 211.435 711.543 217.54C710.495 223.646 707.941 229.393 704.112 234.263C708.432 239.756 711.12 246.353 711.867 253.301C712.615 260.249 711.392 267.266 708.339 273.552C705.286 279.838 700.526 285.137 694.603 288.845C688.68 292.553 681.833 294.519 674.845 294.519C667.857 294.519 661.01 292.553 655.087 288.845C649.164 285.137 644.404 279.838 641.351 273.552C638.298 267.266 637.075 260.249 637.823 253.301C638.57 246.353 641.258 239.756 645.578 234.263C640.416 227.7 637.609 219.592 637.609 211.241C637.609 202.891 640.416 194.783 645.578 188.219L645.578 188.219Z" stroke="#999999" stroke-miterlimit="10"/>
<path d="M620.112 0.325928H72.4346V356.316H620.112V0.325928Z" stroke="#DDDDDD" stroke-width="3" stroke-miterlimit="10"/>
<path d="M72.4346 20.1042H620.112" stroke="#DDDDDD" stroke-width="3" stroke-miterlimit="10"/>
<path d="M86.1265 14.6699C88.6471 14.6699 90.6905 12.6266 90.6905 10.106C90.6905 7.58535 88.6471 5.54199 86.1265 5.54199C83.6059 5.54199 81.5625 7.58535 81.5625 10.106C81.5625 12.6266 83.6059 14.6699 86.1265 14.6699Z" stroke="#999999" stroke-miterlimit="10"/>
<path d="M101.774 14.6699C104.295 14.6699 106.338 12.6266 106.338 10.106C106.338 7.58535 104.295 5.54199 101.774 5.54199C99.2538 5.54199 97.2104 7.58535 97.2104 10.106C97.2104 12.6266 99.2538 14.6699 101.774 14.6699Z" stroke="#999999" stroke-miterlimit="10"/>
<path d="M117.422 14.6699C119.943 14.6699 121.986 12.6266 121.986 10.106C121.986 7.58535 119.943 5.54199 117.422 5.54199C114.902 5.54199 112.858 7.58535 112.858 10.106C112.858 12.6266 114.902 14.6699 117.422 14.6699Z" stroke="#999999" stroke-miterlimit="10"/>
<path d="M271.946 98.4514H82.8665V112.143H271.946V98.4514Z" fill="#DDDDDD"/>
<path d="M271.946 131.051H82.8665V144.743H271.946V131.051Z" fill="#DDDDDD"/>
<path d="M271.946 163.651H82.8665V177.343H271.946V163.651Z" fill="#DDDDDD"/>
<path d="M278.466 93.8875H89.3865V107.579H278.466V93.8875Z" stroke="#999999" stroke-miterlimit="10"/>
<path d="M278.466 126.487H89.3865V140.179H278.466V126.487Z" stroke="#999999" stroke-miterlimit="10"/>
<path d="M278.466 159.087H89.3865V172.779H278.466V159.087Z" stroke="#999999" stroke-miterlimit="10"/>
<path d="M603.16 67.4817H343.665V199.185H603.16V67.4817Z" stroke="#999999" stroke-miterlimit="10"/>
<path d="M564.366 250.041H128.18V301.549H564.366V250.041Z" stroke="#999999" stroke-miterlimit="10"/>
<path d="M377.151 199.185L435.923 101.06L496.885 199.185" stroke="#999999" stroke-miterlimit="10"/>
<path d="M464.937 147.677L476.673 117.033L543.177 199.185" stroke="#999999" stroke-miterlimit="10"/>
<path d="M455.189 132.242C457.015 131.124 458.604 129.657 459.863 127.925C461.123 126.192 462.029 124.229 462.529 122.146C463.029 120.064 463.114 117.903 462.779 115.788C462.444 113.673 461.696 111.644 460.576 109.818C459.457 107.992 457.988 106.405 456.255 105.147C454.522 103.889 452.558 102.984 450.475 102.486C448.392 101.987 446.231 101.904 444.116 102.241C442.001 102.577 439.973 103.328 438.148 104.449" stroke="#999999" stroke-miterlimit="10"/>
<path d="M13.7599 281.021C15.9405 281.125 18.1152 280.72 20.1128 279.84C22.1103 278.959 23.876 277.627 25.2708 275.947C26.6655 274.268 27.6512 272.288 28.15 270.162C28.6488 268.037 28.6472 265.825 28.1453 263.701C27.6434 261.576 26.6549 259.597 25.2577 257.92C23.8606 256.242 22.0929 254.913 20.0941 254.035C18.0953 253.157 15.9199 252.756 13.7395 252.862C11.5591 252.969 9.43327 253.58 7.52951 254.649L10.0196 261.472L4.89646 256.553C2.14921 259.065 0.511412 262.564 0.342983 266.283C0.27813 267.587 0.398442 268.894 0.700335 270.164C1.40066 273.148 3.05444 275.822 5.41105 277.781C7.76766 279.74 10.6987 280.878 13.7599 281.021Z" fill="#0CC782"/>
<path d="M54.9516 356.336C51.9634 350.803 55.3539 344.021 59.2512 339.087C63.1486 334.153 67.8986 329.018 67.7977 322.731C67.6527 313.695 58.0618 308.36 50.3989 303.57C44.7134 300.014 39.4692 295.798 34.7762 291.008C32.8949 289.088 31.0761 287.034 29.9757 284.581C28.391 281.048 28.4351 277.029 28.535 273.158C28.8679 260.265 29.5049 247.383 30.4461 234.515" stroke="#999999" stroke-miterlimit="10"/>
<path d="M13.7599 279.065C15.9405 279.169 18.1152 278.764 20.1128 277.884C22.1103 277.003 23.876 275.671 25.2708 273.991C26.6655 272.312 27.6512 270.332 28.15 268.207C28.6488 266.081 28.6472 263.869 28.1453 261.745C27.6434 259.62 26.6549 257.641 25.2577 255.964C23.8606 254.287 22.0929 252.957 20.0941 252.079C18.0953 251.202 15.9199 250.8 13.7395 250.907C11.5591 251.013 9.43327 251.625 7.52951 252.693L10.0196 259.516L4.89646 254.598C2.14921 257.109 0.511412 260.608 0.342983 264.327C0.27813 265.631 0.398442 266.938 0.700335 268.208C1.40066 271.192 3.05444 273.866 5.41105 275.825C7.76766 277.784 10.6987 278.922 13.7599 279.065Z" stroke="#999999" stroke-miterlimit="10"/>
<path d="M15.8794 236.418C15.989 234.058 16.6909 231.763 17.9204 229.745C19.15 227.727 20.8676 226.051 22.9151 224.872L26.0703 231.114L25.9752 223.558C28.8413 222.713 31.9015 222.802 34.7141 223.81C37.5266 224.818 39.946 226.694 41.6229 229.167C43.2998 231.64 44.1474 234.582 44.0433 237.568C43.9393 240.554 42.889 243.43 41.044 245.78C39.1991 248.13 36.655 249.833 33.7791 250.643C30.9032 251.453 27.8442 251.328 25.0439 250.287C22.2435 249.245 19.8467 247.34 18.1995 244.847C16.5522 242.355 15.7398 239.403 15.8794 236.418Z" fill="#0CC782"/>
<path d="M15.8794 233.81C15.989 231.45 16.6909 229.155 17.9204 227.137C19.15 225.119 20.8676 223.443 22.9151 222.264L26.0703 228.506L25.9752 220.949C28.8413 220.105 31.9015 220.193 34.7141 221.202C37.5266 222.21 39.946 224.086 41.6229 226.559C43.2998 229.032 44.1474 231.974 44.0433 234.96C43.9393 237.946 42.889 240.821 41.044 243.172C39.1991 245.522 36.655 247.225 33.7791 248.035C30.9032 248.845 27.8442 248.72 25.0439 247.678C22.2435 246.637 19.8467 244.732 18.1995 242.239C16.5522 239.746 15.7398 236.795 15.8794 233.81V233.81Z" stroke="#999999" stroke-miterlimit="10"/>
<path d="M48.0777 304.438C51.535 304.599 54.9309 303.483 57.6181 301.301C60.3052 299.12 62.0957 296.026 62.6483 292.609C63.2008 289.192 62.4768 285.692 60.6142 282.774C58.7517 279.857 55.8807 277.727 52.5487 276.791L52.6219 282.597L49.4313 276.281C49.4186 276.279 49.4058 276.279 49.393 276.279C47.5441 276.192 45.6962 276.471 43.955 277.099C42.2138 277.727 40.6132 278.691 39.2448 279.938C37.8763 281.184 36.7667 282.687 35.9794 284.363C35.192 286.038 34.7423 287.852 34.656 289.701C34.5696 291.549 34.8483 293.397 35.476 295.138C36.1038 296.88 37.0684 298.48 38.3147 299.849C39.561 301.217 41.0647 302.327 42.7398 303.114C44.4149 303.901 46.2287 304.351 48.0777 304.438Z" fill="#0CC782"/>
<path d="M47.9695 301.829C51.4269 301.991 54.8228 300.874 57.5099 298.693C60.197 296.511 61.9875 293.418 62.5401 290.001C63.0926 286.584 62.3686 283.083 60.506 280.166C58.6435 277.249 55.7726 275.119 52.4406 274.183L52.5138 279.989L49.3232 273.673C49.3105 273.671 49.2977 273.67 49.2849 273.671C47.4359 273.584 45.5881 273.863 43.8469 274.491C42.1056 275.118 40.5051 276.083 39.1366 277.329C36.3729 279.846 34.7222 283.358 34.5478 287.092C34.4615 288.941 34.7401 290.789 35.3679 292.53C35.9956 294.272 36.9602 295.872 38.2065 297.241C40.7236 300.004 44.2354 301.655 47.9695 301.829Z" stroke="#999999" stroke-miterlimit="10"/>
<path d="M41.0115 331.146C42.4905 334.02 44.9126 336.298 47.8718 337.598C50.8309 338.898 54.147 339.141 57.264 338.286C60.381 337.431 63.1093 335.531 64.9913 332.903C66.8734 330.275 67.7947 327.081 67.6008 323.854C67.4069 320.628 66.1096 317.567 63.9264 315.183C61.7432 312.8 58.8069 311.24 55.61 310.765C52.4131 310.289 49.1499 310.928 46.3678 312.573C43.5857 314.218 41.4538 316.769 40.3296 319.799L49.132 326.962L39.4487 324.718C39.4472 326.955 39.9832 329.159 41.0115 331.146Z" fill="#0CC782"/>
<path d="M41.0115 329.19C42.4905 332.064 44.9126 334.342 47.8718 335.642C50.8309 336.942 54.147 337.185 57.264 336.33C60.381 335.475 63.1093 333.574 64.9913 330.947C66.8734 328.319 67.7947 325.124 67.6008 321.898C67.4069 318.672 66.1096 315.61 63.9264 313.227C61.7432 310.844 58.8069 309.284 55.61 308.808C52.4131 308.333 49.1499 308.972 46.3678 310.617C43.5857 312.262 41.4538 314.813 40.3296 317.843L49.132 325.006L39.4487 322.762C39.4472 324.999 39.9832 327.203 41.0115 329.19V329.19Z" stroke="#999999" stroke-miterlimit="10"/>
<path d="M89.7124 399.674H248.148" stroke="#999999" stroke-miterlimit="10"/>
<path d="M129.359 362.59C128.312 363.173 127.208 363.646 126.064 364.002C124.018 364.561 121.83 364.356 119.763 364.833C118.917 365.028 117.996 365.437 117.727 366.263C117.6 366.891 117.679 367.544 117.95 368.125C120.234 374.822 121.611 381.932 125.253 387.998C126.784 390.546 128.684 392.852 130.891 394.843C131.66 395.661 132.665 396.219 133.766 396.436C134.277 396.49 134.793 396.409 135.262 396.199C135.732 395.99 136.137 395.661 136.439 395.245C136.74 394.829 136.926 394.34 136.978 393.829C137.03 393.318 136.947 392.802 136.736 392.334C136.409 391.608 135.802 391.046 135.411 390.353C134.986 389.471 134.737 388.514 134.678 387.536C134.318 384.672 133.971 381.679 134.964 378.968C135.629 377.15 136.85 375.6 137.867 373.953C138.884 372.305 139.729 370.418 139.503 368.495C139.273 367.19 138.772 365.947 138.032 364.847C137.355 363.71 136.016 360.653 134.655 360.274C133.242 359.88 130.592 361.959 129.359 362.59Z" fill="#DDDDDD"/>
<path d="M166.604 385.722C166.625 386.37 166.535 387.017 166.337 387.634C165.911 388.759 164.854 389.53 164.308 390.602C163.548 392.093 163.892 393.896 164.396 395.492C164.627 396.522 165.179 397.454 165.972 398.152C166.697 398.601 167.52 398.865 168.371 398.92C175.638 399.926 183.021 399.349 190.354 399.56C191.691 399.598 193.106 399.645 194.273 398.992C195.44 398.339 196.161 396.696 195.367 395.62C194.655 394.654 193.246 394.663 192.046 394.606C188.923 394.447 185.949 393.222 183.62 391.135C183.161 390.742 182.762 390.284 182.438 389.774C182.189 389.322 181.982 388.847 181.82 388.357C180.792 385.572 179.569 382.863 178.16 380.25C177.83 379.483 177.283 378.828 176.586 378.366C176.049 378.122 175.467 377.995 174.878 377.993C173.05 377.875 168.317 377.253 166.903 378.674C165.597 379.987 166.633 384.054 166.604 385.722Z" fill="#DDDDDD"/>
<path d="M177.852 223.42C184.299 223.42 189.526 218.193 189.526 211.745C189.526 205.298 184.299 200.071 177.852 200.071C171.404 200.071 166.177 205.298 166.177 211.745C166.177 218.193 171.404 223.42 177.852 223.42Z" fill="#FBBEBE"/>
<path d="M167.309 221.386C166.674 223.285 165.409 224.91 163.723 225.991L179.87 229.285C179.284 226.928 179.207 224.474 179.643 222.085C179.804 221.507 179.837 220.901 179.74 220.308C179.436 219.137 178.118 218.573 176.938 218.304C173.991 217.632 171.385 217.272 168.646 215.97C167.809 217.403 167.926 219.733 167.309 221.386Z" fill="#FBBEBE"/>
<path d="M163.588 221.62C165.325 220.834 167.217 220.451 169.123 220.501C171.029 220.551 172.899 221.031 174.593 221.907C176.612 223.097 178.453 224.565 180.061 226.269C181.614 227.767 183.27 229.482 183.38 231.636C183.342 232.68 183.196 233.718 182.943 234.732C182.647 236.866 183.023 239.039 184.018 240.95C185.013 242.861 186.578 244.415 188.495 245.397C189.778 247.534 190.043 250.123 190.063 252.615C190.137 262.058 187.158 271.618 189.285 280.819C189.784 282.979 190.559 285.071 190.99 287.246C191.549 290.063 191.521 292.959 191.814 295.816C192.131 298.91 192.823 301.953 193.874 304.88C193.171 305.998 191.709 306.426 190.392 306.336C189.078 306.169 187.811 305.74 186.668 305.072C180.977 302.16 175.765 298.32 169.871 295.845C165.972 294.208 161.817 293.188 158.035 291.297C154.252 289.406 150.734 286.405 149.577 282.337C149.154 280.555 148.966 278.726 149.019 276.896C148.904 269.194 148.797 261.409 150.473 253.891C151.952 247.262 154.801 240.919 155.423 234.155C155.625 231.954 155.63 229.597 156.86 227.76C158.599 225.163 162.353 224.49 163.588 221.62Z" fill="#3F3D56"/>
<path d="M171.212 211.91C171.9 211.013 173.226 210.891 174.325 211.156C175.424 211.421 176.438 211.988 177.548 212.203C177.8 212.275 178.065 212.293 178.324 212.256C178.584 212.22 178.833 212.13 179.056 211.991C179.444 211.609 179.676 211.096 179.707 210.553C180.096 208.239 180.187 205.886 179.977 203.55C179.919 203.222 179.941 202.885 180.041 202.567C180.316 201.905 181.154 201.748 181.839 201.535C182.969 201.153 183.939 200.406 184.597 199.411C185.254 198.417 185.562 197.231 185.471 196.042C185.454 195.472 185.214 194.931 184.803 194.535C184.284 194.205 183.668 194.059 183.056 194.12C179.918 194.095 176.779 194.096 173.641 194.123C172.477 194.036 171.311 194.249 170.253 194.74C169.555 195.24 168.897 195.794 168.286 196.397C166.543 197.804 164.185 198.09 162.064 198.811C161.029 199.106 160.089 199.666 159.338 200.437C158.969 200.827 158.717 201.314 158.611 201.84C158.504 202.367 158.548 202.912 158.736 203.416C158.964 203.822 159.218 204.213 159.496 204.586C160.747 206.586 159.915 209.18 160.101 211.532C160.335 214.469 164.681 219.233 167.628 219.927C172.385 221.049 169.637 213.838 171.212 211.91Z" fill="#3F3D56"/>
<path d="M164.621 340.667C165.015 342.797 165.21 344.96 165.203 347.126C165.059 350.145 163.97 353.055 163.769 356.071C163.619 358.323 163.967 360.6 163.654 362.836C163.453 364.268 162.987 365.648 162.697 367.065C162.24 369.373 162.253 371.75 162.735 374.053C163.218 376.356 164.161 378.538 165.507 380.468C165.705 380.799 165.986 381.071 166.322 381.259C166.645 381.378 166.99 381.424 167.333 381.392C170.731 381.323 174.12 381.015 177.475 380.47C177.72 380.46 177.953 380.358 178.126 380.183C178.202 380.067 178.25 379.936 178.267 379.799C178.889 376.601 177.471 373.395 177.11 370.157C176.725 366.7 177.554 363.236 178.378 359.857C178.751 358.189 179.218 356.545 179.775 354.93C180.173 353.843 180.654 352.786 180.998 351.681C181.487 349.945 181.784 348.161 181.886 346.361C182.125 343.52 182.252 340.673 182.266 337.82C182.348 335.115 182.123 332.411 181.595 329.757C180.839 326.397 179.289 323.278 177.753 320.195C176.932 320.392 176.161 320.759 175.49 321.271C173.51 322.553 171.444 323.695 169.305 324.688C167.868 325.356 165.065 325.83 164.153 327.221C163.254 328.593 163.834 331.392 163.903 332.905C164.02 335.501 164.26 338.089 164.621 340.667Z" fill="#3F3D56"/>
<path opacity="0.1" d="M164.621 340.667C165.015 342.797 165.21 344.96 165.203 347.126C165.059 350.145 163.97 353.055 163.769 356.071C163.619 358.323 163.967 360.6 163.654 362.836C163.453 364.268 162.987 365.648 162.697 367.065C162.24 369.373 162.253 371.75 162.735 374.053C163.218 376.356 164.161 378.538 165.507 380.468C165.705 380.799 165.986 381.071 166.322 381.259C166.645 381.378 166.99 381.424 167.333 381.392C170.731 381.323 174.12 381.015 177.475 380.47C177.72 380.46 177.953 380.358 178.126 380.183C178.202 380.067 178.25 379.936 178.267 379.799C178.889 376.601 177.471 373.395 177.11 370.157C176.725 366.7 177.554 363.236 178.378 359.857C178.751 358.189 179.218 356.545 179.775 354.93C180.173 353.843 180.654 352.786 180.998 351.681C181.487 349.945 181.784 348.161 181.886 346.361C182.125 343.52 182.252 340.673 182.266 337.82C182.348 335.115 182.123 332.411 181.595 329.757C180.839 326.397 179.289 323.278 177.753 320.195C176.932 320.392 176.161 320.759 175.49 321.271C173.51 322.553 171.444 323.695 169.305 324.688C167.868 325.356 165.065 325.83 164.153 327.221C163.254 328.593 163.834 331.392 163.903 332.905C164.02 335.501 164.26 338.089 164.621 340.667Z" fill="black"/>
<path d="M148.837 294.869C147.286 299.043 149.565 303.553 151.545 307.542C156.423 317.368 159.81 327.852 163.18 338.292C163.516 339.048 163.595 339.894 163.403 340.699C163.16 341.248 162.765 341.716 162.266 342.048C159.943 343.812 156.985 344.441 154.217 345.364C151.543 346.256 148.982 347.457 146.585 348.942C144.58 350.185 142.701 351.619 140.826 353.051L134.858 357.609C134.472 357.87 134.134 358.197 133.861 358.575C133.285 359.478 133.521 360.657 133.807 361.688C134.566 364.421 135.543 367.088 136.729 369.663C136.925 370.228 137.296 370.715 137.789 371.052C138.721 371.553 139.86 370.889 140.571 370.106C141.283 369.324 141.898 368.35 142.901 368.014C143.902 367.678 145.005 368.085 146.051 367.938C147.742 367.701 148.866 366.142 150.085 364.946C155.067 360.058 163.386 360.412 168.867 356.09C169.659 355.381 170.498 354.726 171.377 354.129C172.304 353.581 173.355 353.281 174.316 352.797C177.24 351.324 179.078 348.28 180.063 345.158C181.047 342.036 181.328 338.741 182.036 335.544C182.473 333.909 182.81 332.249 183.046 330.573C183.15 329.006 183.116 327.433 182.944 325.872L180.966 301.408C180.805 299.416 180.644 297.422 180.331 295.449C174.458 295.658 168.589 295.895 162.712 295.964C158.036 296.02 153.274 296.346 148.837 294.869Z" fill="#3F3D56"/>
<path d="M146.678 300.592C147.474 301.873 149.413 301.846 150.749 301.144C152.084 300.441 153.122 299.261 154.46 298.565C156.259 297.629 158.387 297.664 160.414 297.721C163.623 297.812 166.871 297.908 169.958 298.788C173.151 299.697 176.26 301.448 179.561 301.099C179.851 301.099 180.136 301.035 180.398 300.912C180.66 300.789 180.892 300.61 181.077 300.388C181.26 300.036 181.346 299.641 181.327 299.245L181.434 296.36C181.501 295.861 181.421 295.354 181.205 294.9C180.928 294.521 180.548 294.231 180.111 294.062C175.411 291.787 170.052 291.363 164.833 291.184C162.181 291.094 159.527 291.056 156.873 291.072C154.62 291.086 151.915 290.76 149.725 291.362C146.786 292.17 145.186 298.193 146.678 300.592Z" fill="#3F3D56"/>
<path d="M176.187 225.044C170.029 224.99 164.449 220.925 158.292 220.826C157.548 220.775 156.803 220.903 156.119 221.201C155.316 221.731 154.614 222.399 154.045 223.175C152.225 225.146 149.589 226.199 147.718 228.123C145.964 229.928 144.989 232.616 145.682 235.035C146.374 237.454 148.987 239.309 151.435 238.728C152.421 235.535 154.457 232.769 157.212 230.879C158.645 229.959 160.156 229.166 161.727 228.509C164.494 227.255 167.588 225.977 170.477 226.917C171.543 227.319 172.548 227.867 173.463 228.545L178.279 231.78C177.718 229.567 177.213 227.084 176.187 225.044Z" fill="#007BDB"/>
<path d="M150.726 236.587C149.908 237.607 151.086 239.085 150.906 240.38C150.786 241.24 150.078 241.897 149.783 242.714C149.478 243.561 149.64 244.498 149.524 245.39C149.408 246.039 149.236 246.677 149.01 247.296C148.491 249.146 148.129 251.037 147.928 252.948L146.85 260.996C146.663 262.208 146.549 263.429 146.509 264.654C146.563 265.57 146.502 266.488 146.327 267.389C146.009 268.242 145.634 269.074 145.204 269.877C144.992 270.281 144.878 270.73 144.871 271.186C144.864 271.643 144.965 272.095 145.164 272.506C144.367 273.204 143.836 274.157 143.66 275.202C143.485 276.247 143.677 277.321 144.202 278.241C144.416 278.516 144.584 278.825 144.698 279.154C144.76 279.614 144.684 280.083 144.48 280.5L143.39 283.404C143.111 284.147 143.023 285.279 143.798 285.448C143.156 286.115 142.655 286.906 142.327 287.772C142.168 288.207 142.12 288.675 142.189 289.133C142.257 289.591 142.439 290.024 142.719 290.393C142.99 290.631 143.22 290.911 143.402 291.222C143.508 291.655 143.481 292.111 143.323 292.529C143.16 293.163 143.128 293.823 143.23 294.47C143.332 295.117 143.566 295.736 143.916 296.289C144.279 296.835 144.793 297.263 145.396 297.521C145.998 297.779 146.663 297.857 147.308 297.743C149.488 297.251 151.447 296.475 153.645 296.879C158.397 297.647 163.095 298.717 167.71 300.083C172.942 301.753 178.007 304.202 183.475 304.717C183.835 304.79 184.209 304.732 184.529 304.553C184.808 304.289 184.981 303.932 185.017 303.55L186.707 295.627C187.388 292.699 187.906 289.736 188.26 286.751C188.452 284.825 188.507 282.887 188.562 280.952L188.998 265.548C189.202 263.277 188.899 260.99 188.111 258.851L185.606 250.854C184.176 246.29 180.897 242.243 179.729 237.605C178.99 234.669 178.444 231.519 176.462 229.232C173.637 225.97 168.748 225.462 164.469 226.023C162.522 226.203 160.631 226.779 158.915 227.716C156.982 228.875 155.557 230.701 154.179 232.486C153.044 233.956 151.888 235.138 150.726 236.587Z" fill="#007BDB"/>
<path d="M160.716 281.897C161.069 283.417 161.809 284.818 162.262 286.311C163.022 288.813 162.957 291.507 163.715 294.01C164.033 295.06 164.494 296.068 164.722 297.141C165.254 299.644 164.477 302.233 163.512 304.602C162.547 306.971 161.371 309.307 161.058 311.846C160.837 313.635 161.154 315.654 162.533 316.815C163.964 318.02 166.043 317.938 167.907 317.778C168.576 317.759 169.237 317.621 169.858 317.372C171.283 316.697 171.884 315.01 172.217 313.469C173.333 308.304 173.014 302.95 172.69 297.676L171.841 283.882C171.785 281.205 171.397 278.546 170.685 275.966C170.387 275.038 169.868 273.164 169.021 272.571C168.182 271.985 165.785 271.959 164.746 271.91C159.872 271.681 159.926 278.485 160.716 281.897Z" fill="#FBBEBE"/>
<path d="M166.117 230.966C165.601 230.74 165.036 230.648 164.475 230.697C163.913 230.747 163.374 230.937 162.905 231.25C161.976 231.886 161.162 232.676 160.499 233.586C158.348 236.212 156.07 239.225 156.389 242.605C156.597 243.861 156.91 245.097 157.323 246.301C158.765 251.692 157.171 257.393 157.354 262.971C157.559 266.191 158.063 269.385 158.859 272.512C159.002 273.154 159.23 273.898 159.851 274.115C160.34 274.208 160.847 274.13 161.285 273.892C163.006 273.256 164.856 273.044 166.676 273.273C168.497 273.503 170.236 274.168 171.746 275.211C172.9 274.595 172.468 272.647 172.209 271.365C171.44 267.554 172.484 263.623 173.752 259.948C175.019 256.272 176.536 252.602 176.746 248.72C176.984 244.322 175.526 240.029 174.087 235.865C173.95 234.995 173.538 234.19 172.912 233.57C172.285 232.95 171.477 232.547 170.605 232.418C169.076 231.967 167.529 231.706 166.117 230.966Z" fill="#3F3D56"/>
</g>
<defs>
<clipPath id="clip0">
<rect width="712.407" height="400" fill="white"/>
</clipPath>
</defs>
</svg>
