<svg width="225" height="62" viewBox="0 0 225 62" fill="none" xmlns="http://www.w3.org/2000/svg">
<path d="M72.7 48.45C70.84 48.45 69.16 47.94 67.66 46.92C66.16 45.87 65.005 44.475 64.195 42.735C64.045 42.495 63.97 42.255 63.97 42.015C63.97 41.655 64.105 41.355 64.375 41.115C64.675 40.875 64.99 40.755 65.32 40.755C65.8 40.755 66.22 41.01 66.58 41.52C67.15 42.81 67.975 43.845 69.055 44.625C70.135 45.375 71.35 45.75 72.7 45.75C74.77 45.75 76.45 45.12 77.74 43.86C79.03 42.57 79.675 40.89 79.675 38.82V17.85C79.675 17.46 79.81 17.145 80.08 16.905C80.35 16.635 80.695 16.5 81.115 16.5C81.535 16.5 81.865 16.635 82.105 16.905C82.375 17.145 82.51 17.46 82.51 17.85V38.82C82.51 40.65 82.09 42.3 81.25 43.77C80.41 45.24 79.24 46.395 77.74 47.235C76.27 48.045 74.59 48.45 72.7 48.45ZM111.547 36.48C111.547 38.73 111.052 40.77 110.062 42.6C109.072 44.43 107.707 45.87 105.967 46.92C104.227 47.94 102.292 48.45 100.162 48.45C98.032 48.45 96.097 47.94 94.357 46.92C92.617 45.87 91.252 44.43 90.262 42.6C89.272 40.77 88.777 38.73 88.777 36.48C88.777 34.23 89.272 32.19 90.262 30.36C91.252 28.53 92.617 27.09 94.357 26.04C96.097 24.99 98.032 24.465 100.162 24.465C102.292 24.465 104.227 24.99 105.967 26.04C107.707 27.09 109.072 28.53 110.062 30.36C111.052 32.19 111.547 34.23 111.547 36.48ZM108.847 36.48C108.847 34.68 108.472 33.06 107.722 31.62C106.972 30.18 105.922 29.055 104.572 28.245C103.252 27.405 101.782 26.985 100.162 26.985C98.542 26.985 97.072 27.405 95.752 28.245C94.432 29.055 93.382 30.18 92.602 31.62C91.852 33.06 91.477 34.68 91.477 36.48C91.477 38.25 91.852 39.855 92.602 41.295C93.382 42.735 94.432 43.875 95.752 44.715C97.072 45.525 98.542 45.93 100.162 45.93C101.782 45.93 103.252 45.525 104.572 44.715C105.922 43.905 106.972 42.78 107.722 41.34C108.472 39.9 108.847 38.28 108.847 36.48ZM119.68 46.65C119.68 47.04 119.545 47.37 119.275 47.64C119.035 47.88 118.72 48 118.33 48C117.94 48 117.61 47.88 117.34 47.64C117.1 47.37 116.98 47.04 116.98 46.65V25.95C116.98 25.56 117.1 25.245 117.34 25.005C117.61 24.735 117.94 24.6 118.33 24.6C118.72 24.6 119.035 24.735 119.275 25.005C119.545 25.245 119.68 25.56 119.68 25.95V46.65ZM118.33 21.585C117.73 21.585 117.265 21.45 116.935 21.18C116.605 20.88 116.44 20.46 116.44 19.92V19.47C116.44 18.93 116.605 18.525 116.935 18.255C117.295 17.955 117.775 17.805 118.375 17.805C119.575 17.805 120.175 18.36 120.175 19.47V19.92C120.175 20.46 120.01 20.88 119.68 21.18C119.38 21.45 118.93 21.585 118.33 21.585ZM137.539 24.465C140.329 24.465 142.369 25.29 143.659 26.94C144.979 28.56 145.639 30.72 145.639 33.42V46.65C145.639 47.04 145.504 47.37 145.234 47.64C144.964 47.88 144.649 48 144.289 48C143.899 48 143.569 47.88 143.299 47.64C143.059 47.37 142.939 47.04 142.939 46.65V33.555C142.939 31.605 142.444 30.03 141.454 28.83C140.494 27.6 138.994 26.985 136.954 26.985C135.664 26.985 134.434 27.285 133.264 27.885C132.124 28.485 131.194 29.295 130.474 30.315C129.754 31.305 129.394 32.385 129.394 33.555V46.65C129.394 47.04 129.259 47.37 128.989 47.64C128.749 47.88 128.434 48 128.044 48C127.654 48 127.324 47.88 127.054 47.64C126.814 47.37 126.694 47.04 126.694 46.65V26.49C126.694 26.1 126.814 25.785 127.054 25.545C127.324 25.275 127.654 25.14 128.044 25.14C128.434 25.14 128.749 25.275 128.989 25.545C129.259 25.785 129.394 26.1 129.394 26.49V28.965C130.204 27.675 131.359 26.61 132.859 25.77C134.389 24.9 135.949 24.465 137.539 24.465ZM171.384 14.7C171.774 14.7 172.089 14.835 172.329 15.105C172.599 15.345 172.734 15.66 172.734 16.05V46.65C172.734 47.04 172.599 47.37 172.329 47.64C172.089 47.88 171.774 48 171.384 48C170.994 48 170.664 47.88 170.394 47.64C170.154 47.37 170.034 47.04 170.034 46.65V43.5C169.284 44.88 168.159 46.05 166.659 47.01C165.189 47.97 163.554 48.45 161.754 48.45C159.774 48.45 157.974 47.94 156.354 46.92C154.764 45.87 153.504 44.43 152.574 42.6C151.644 40.77 151.179 38.715 151.179 36.435C151.179 34.185 151.644 32.145 152.574 30.315C153.504 28.485 154.764 27.06 156.354 26.04C157.974 24.99 159.759 24.465 161.709 24.465C163.479 24.465 165.114 24.915 166.614 25.815C168.114 26.685 169.254 27.825 170.034 29.235V16.05C170.034 15.66 170.154 15.345 170.394 15.105C170.664 14.835 170.994 14.7 171.384 14.7ZM162.024 45.93C163.584 45.93 164.979 45.525 166.209 44.715C167.469 43.905 168.444 42.78 169.134 41.34C169.854 39.87 170.214 38.235 170.214 36.435C170.214 34.665 169.854 33.06 169.134 31.62C168.444 30.18 167.469 29.055 166.209 28.245C164.979 27.405 163.584 26.985 162.024 26.985C160.464 26.985 159.054 27.405 157.794 28.245C156.564 29.055 155.589 30.18 154.869 31.62C154.179 33.06 153.834 34.665 153.834 36.435C153.834 38.235 154.179 39.855 154.869 41.295C155.589 42.735 156.564 43.875 157.794 44.715C159.054 45.525 160.464 45.93 162.024 45.93ZM199.22 35.175C199.22 35.535 199.085 35.85 198.815 36.12C198.545 36.36 198.23 36.48 197.87 36.48H180.86C180.86 38.28 181.22 39.9 181.94 41.34C182.69 42.75 183.74 43.875 185.09 44.715C186.47 45.525 188.09 45.93 189.95 45.93C191.39 45.93 192.68 45.63 193.82 45.03C194.96 44.43 195.875 43.665 196.565 42.735C196.895 42.465 197.21 42.33 197.51 42.33C197.81 42.33 198.08 42.45 198.32 42.69C198.56 42.93 198.68 43.2 198.68 43.5C198.68 43.83 198.53 44.145 198.23 44.445C197.27 45.615 196.055 46.575 194.585 47.325C193.145 48.075 191.615 48.45 189.995 48.45C187.685 48.45 185.645 47.955 183.875 46.965C182.105 45.975 180.725 44.595 179.735 42.825C178.745 41.025 178.25 38.955 178.25 36.615C178.25 34.155 178.73 32.01 179.69 30.18C180.68 28.32 181.985 26.91 183.605 25.95C185.225 24.96 186.95 24.465 188.78 24.465C190.58 24.465 192.26 24.885 193.82 25.725C195.41 26.565 196.7 27.795 197.69 29.415C198.68 31.035 199.19 32.955 199.22 35.175ZM188.78 27.075C187.04 27.075 185.42 27.675 183.92 28.875C182.45 30.075 181.505 31.8 181.085 34.05H196.43V33.69C196.28 32.34 195.83 31.17 195.08 30.18C194.33 29.16 193.385 28.395 192.245 27.885C191.135 27.345 189.98 27.075 188.78 27.075ZM221.935 24.555C222.235 24.555 222.52 24.66 222.79 24.87C223.06 25.08 223.195 25.35 223.195 25.68C223.195 25.95 223.135 26.205 223.015 26.445L214.195 47.145C214.075 47.385 213.895 47.595 213.655 47.775C213.445 47.925 213.22 48 212.98 48C212.68 48.03 212.41 47.97 212.17 47.82C211.93 47.67 211.75 47.445 211.63 47.145L202.765 26.445C202.765 26.385 202.735 26.295 202.675 26.175C202.645 26.055 202.63 25.935 202.63 25.815C202.63 25.455 202.75 25.155 202.99 24.915C203.23 24.645 203.575 24.51 204.025 24.51C204.295 24.51 204.535 24.6 204.745 24.78C204.985 24.93 205.165 25.14 205.285 25.41L212.935 43.635L220.63 25.41C220.75 25.14 220.915 24.93 221.125 24.78C221.365 24.6 221.635 24.525 221.935 24.555Z" fill="#A9ABAE"/>
<path d="M7 18H11.5C12.0523 18 12.5 18.4477 12.5 19V45H7V18Z" fill="#007BDB"/>
<path d="M0 26C0 25.4477 0.447715 25 1 25H4.5C5.05228 25 5.5 25.4477 5.5 26V37.5C5.5 38.0523 5.05228 38.5 4.5 38.5H1C0.447715 38.5 0 38.0523 0 37.5V26Z" fill="#014B94"/>
<path d="M0 19C0 18.4477 0.447715 18 1 18H11C11.5523 18 12 18.4477 12 19V22.5C12 23.0523 11.5523 23.5 11 23.5H1C0.447715 23.5 0 23.0523 0 22.5V19Z" fill="#007BDB"/>
<circle cx="10" cy="50" r="4.75" stroke="#007BDB" stroke-width="2.5"/>
<path d="M20.5 55.7978L18.25 51.9007C17.9739 51.4224 18.1377 50.8108 18.616 50.5347L41.1327 37.5347L43.8827 42.2978L20.5 55.7978Z" fill="#007BDB"/>
<path d="M30.9282 57.86C30.4499 58.1361 29.8383 57.9723 29.5622 57.494L27.8122 54.4629C27.536 53.9846 27.6999 53.373 28.1782 53.0969L38.1375 47.3469C38.6158 47.0707 39.2274 47.2346 39.5035 47.7129L41.2535 50.744C41.5297 51.2223 41.3658 51.8339 40.8875 52.11L30.9282 57.86Z" fill="#014B94"/>
<path d="M24.866 61.36C24.3877 61.6361 23.7761 61.4723 23.5 60.994L18.5 52.3337C18.2239 51.8554 18.3877 51.2438 18.866 50.9677L21.8971 49.2177C22.3754 48.9416 22.987 49.1054 23.2631 49.5837L28.2631 58.244C28.5393 58.7223 28.3754 59.3339 27.8971 59.61L24.866 61.36Z" fill="#007BDB"/>
<circle cx="46.7128" cy="37.1997" r="4.75" transform="rotate(-120 46.7128 37.1997)" stroke="#007BDB" stroke-width="2.5"/>
<path d="M46.409 25.0622L44.159 28.9593C43.8828 29.4376 43.2712 29.6015 42.7929 29.3253L20.2763 16.3253L23.0263 11.5622L46.409 25.0622Z" fill="#007BDB"/>
<path d="M42.9808 15C43.4591 15.2761 43.6229 15.8877 43.3468 16.366L41.5968 19.3971C41.3206 19.8754 40.7091 20.0393 40.2308 19.7631L30.2715 14.0131C29.7932 13.737 29.6293 13.1254 29.9054 12.6471L31.6554 9.61603C31.9316 9.13773 32.5432 8.97386 33.0215 9.25L42.9808 15Z" fill="#014B94"/>
<path d="M49.0429 18.5C49.5212 18.7761 49.6851 19.3877 49.409 19.866L44.409 28.5263C44.1328 29.0046 43.5212 29.1684 43.0429 28.8923L40.0119 27.1423C39.5336 26.8662 39.3697 26.2546 39.6458 25.7763L44.6458 17.116C44.922 16.6377 45.5336 16.4739 46.0119 16.75L49.0429 18.5Z" fill="#007BDB"/>
<circle cx="17.1962" cy="11.6603" r="4.75" transform="rotate(120 17.1962 11.6603)" stroke="#007BDB" stroke-width="2.5"/>
</svg>
